<?xml version="1.0" encoding="UTF-8"?>
<svg width="89px" height="105px" viewBox="0 0 89 105" version="1.1" xmlns="http://www.w3.org/2000/svg" xmlns:xlink="http://www.w3.org/1999/xlink">
    <title>LOGO</title>
    <g id="Page-1" stroke="none" stroke-width="1" fill="none" fill-rule="evenodd">
        <g id="LOGO" transform="translate(44.748226, 52.406223) rotate(-360.000000) translate(-44.748226, -52.406223) translate(0.748226, 0.406223)">
            <path d="M44,0 C47.4179132,0 50.3352031,2.14342281 51.4810249,5.15942347 L51.5418554,5.32561593 L87.1112225,92.3315915 C87.6792146,93.4304183 88,94.6777474 88,96 C88,100.418278 84.418278,104 80,104 C77.4551158,104 75.1877713,102.811712 73.7225486,100.959717 L47.3241443,73.7743779 C46.6062721,72.7042984 45.3853849,72 44,72 C42.564478,72 41.3055756,72.7561979 40.5999088,73.8919775 L13.8116176,101.530382 L13.7924129,101.517988 C12.3353118,103.047093 10.2789376,104 8,104 C3.581722,104 -8.52651283e-14,100.418278 -8.52651283e-14,96 C-8.52651283e-14,94.7244152 0.298541343,93.5185584 0.829564188,92.4484896 L36.3720135,5.58170093 C37.3970577,2.34546915 40.424622,0 44,0 Z" id="Combined-Shape" fill-opacity="0" fill="#D8D8D8"></path>
            <path d="M44.0470925,53.7137173 L86.3669167,100.844502 C84.9054626,102.762284 82.5972734,104 80,104 C77.4551158,104 75.1877713,102.811712 73.7225486,100.959717 L47.3241443,73.7743779 C46.6144574,72.7164997 45.4131612,72.0161087 44.0473248,72.0002742 L44.0470925,53.7137173 Z" id="Combined-Shape" fill="#507191"></path>
            <path d="M44,-2.84217094e-14 C47.4179132,-2.84217094e-14 50.3352031,2.14342281 51.4810249,5.15942347 L51.5418554,5.32561593 L87.1112225,92.3315915 C87.6792146,93.4304183 88,94.6777474 88,96 C88,98.4420394 86.9058141,100.628518 85.1809612,102.095917 L44,53.7137173 L44,-2.84217094e-14 L44,-2.84217094e-14 Z" id="Combined-Shape" fill="#41B883"></path>
            <path d="M1.90413584,53.7137173 L44.088955,100.60955 C42.6405307,102.660594 40.2515032,104 37.5496407,104 C35.0047565,104 32.737412,102.811712 31.2721893,100.959717 L4.87378498,73.7743779 C4.20199839,72.7729948 3.08970837,72.0919359 1.81433215,72.0086184 L1.90413584,53.7137173 Z" id="Combined-Shape" fill="#34495E" transform="translate(22.952068, 78.856859) scale(-1, 1) translate(-22.952068, -78.856859) "></path>
            <path d="M-1.0658141e-13,2.84217094e-14 C3.41791317,2.84217094e-14 6.33520312,2.14342281 7.48102487,5.15942347 L7.5418554,5.32561593 L43.1112225,92.3315915 C43.6792146,93.4304183 44,94.6777474 44,96 C44,98.4745371 42.8764983,100.686666 41.1117661,102.154116 L-8.52651283e-14,53.7137173 L-1.0658141e-13,2.84217094e-14 L-1.0658141e-13,2.84217094e-14 Z" id="Combined-Shape" fill="#5AFFB6" transform="translate(22.000000, 51.097489) scale(-1, 1) translate(-22.000000, -51.097489) "></path>
        </g>
    </g>
</svg>